<svg id="Layer_1" data-name="Layer 1" xmlns="http://www.w3.org/2000/svg" viewBox="0 0 257.43 288"><defs><style>.cls-1{fill:#f4b223;}.cls-2{fill:#00609c;}.cls-3{fill:#6aaae4;}</style></defs><path class="cls-1" d="M259.76,267.59A111.54,111.54,0,0,1,69.38,186a111.54,111.54,0,1,0,221.39,21.89A111,111,0,0,1,259.76,267.59Z" transform="translate(-67.72 -53.74)"/><path class="cls-2" d="M196.71,280.41a111.55,111.55,0,0,1-77-192.29,111.55,111.55,0,1,0,141.08,172A111,111,0,0,1,196.71,280.41Z" transform="translate(-67.72 -53.74)"/><path class="cls-3" d="M141.3,245.78A111.54,111.54,0,0,1,222.86,55.4,111.54,111.54,0,1,0,201,276.79,111.1,111.1,0,0,1,141.3,245.78Z" transform="translate(-67.72 -53.74)"/><path class="cls-3" d="M276,149.71a111.54,111.54,0,0,1-81.55,190.38A111.54,111.54,0,1,0,216.29,118.7,111,111,0,0,1,276,149.71Z" transform="translate(-67.72 -53.74)"/><path class="cls-2" d="M293.5,213.45A111.54,111.54,0,0,1,101.22,290.4a111.54,111.54,0,1,0,172-141.07A111,111,0,0,1,293.5,213.45Z" transform="translate(-67.72 -53.74)"/><path class="cls-2" d="M130.72,196.26c0-14.3,10.51-24.8,25.39-24.8,12.18,0,21.52,7.14,24.44,17.65h-7.88c-2.55-6.49-8.61-10.8-16.56-10.8-10.58,0-17.87,7.59-17.87,17.95s7.29,17.94,17.87,17.94c7.95,0,14-4.3,16.56-10.79h7.88c-2.92,10.5-12.26,17.65-24.44,17.65C141.23,221.06,130.72,210.56,130.72,196.26Z" transform="translate(-67.72 -53.74)"/><path class="cls-2" d="M184.82,171.46h7.44v49.6h-7.44Z" transform="translate(-67.72 -53.74)"/><path class="cls-2" d="M197.84,189c0-11.81,7.15-17.5,16.34-17.5,6.28,0,11.17,2.77,13.79,7.95,2.63-5.18,7.52-7.95,13.79-7.95,9.19,0,16.34,5.69,16.34,17.5v32.1h-7.44V189c0-7.29-4.09-10.65-9.48-10.65s-9.49,3.5-9.49,10.65v32.1h-7.44V189c0-7.15-4-10.65-9.48-10.65s-9.49,3.36-9.49,10.65v32.1h-7.44Z" transform="translate(-67.72 -53.74)"/></svg>